<svg height="512" viewBox="0 0 512 512" width="512" xmlns="http://www.w3.org/2000/svg"><g id="filled_outline" data-name="filled outline"><path d="m404.223 488h-144a35.778 35.778 0 0 1 0-32v-210.53a80 80 0 0 1 28.785-61.458l.5-.42a52 52 0 0 0 18.711-39.947v-87.645h48v87.645a52 52 0 0 0 18.71 39.947l.5.42a80 80 0 0 1 28.785 61.458v210.53a35.778 35.778 0 0 1 0 32z" fill="#961b20"/><path d="m308.223 24h48v32h-48z" fill="#c52835"/><path d="m315.252 95.029h33.941v33.941h-33.941z" fill="#c38325" transform="matrix(.707 -.707 .707 .707 18.11 267.721)"/><path d="m323.226 103.003h17.994v17.994h-17.994z" fill="#d18d28" transform="matrix(.707 -.707 .707 .707 18.11 267.721)"/><path d="m260.223 330.909 72 85.091 72-85.091v-36.364l-72-78.545-72 78.545z" fill="#d18d28"/><path d="m272.751 328.315 59.472 70.284 59.472-70.284-.001-30.036-59.471-64.878-59.472 64.878z" fill="#ea9d2d"/><circle cx="332.223" cy="296" fill="#d18d28" r="24"/><path d="m196.66 474.422-17.345-18.422v-104h-32v104l-18.343 18.343a19.315 19.315 0 0 0 -5.657 13.657h78.6v-.339a19.315 19.315 0 0 0 -5.255-13.239z" fill="#e2e2e2"/><path d="m211.315 200h-96l-12.444 56h120.889z" fill="#e2e2e2"/><g fill="#c52835"><path d="m223.76 256h-120.889l-5.245 23.6a67.729 67.729 0 0 0 49.689 80.4h32a67.73 67.73 0 0 0 49.69-80.4z"/><path d="m312 464h-16a8 8 0 0 1 0-16h16a8 8 0 0 1 0 16z"/><path d="m376 464h-32a8 8 0 0 1 0-16h32a8 8 0 0 1 0 16z"/></g><path d="m176 336a8 8 0 0 1 -2.527-15.592l1.227-.408a25.268 25.268 0 0 0 17.3-24 8 8 0 0 1 16 0 41.247 41.247 0 0 1 -28.238 39.179l-1.234.411a8 8 0 0 1 -2.528.41z" fill="#e82f3e"/><path d="m364.223 24a8 8 0 0 0 -8-8h-48a8 8 0 0 0 -8 8v119.645a43.881 43.881 0 0 1 -15.836 33.8l-.5.418a87.76 87.76 0 0 0 -31.664 67.6v208.75a44.008 44.008 0 0 0 .845 37.365 8 8 0 0 0 7.155 4.422h144a8 8 0 0 0 7.156-4.423 44.013 44.013 0 0 0 .844-37.364v-208.743a87.76 87.76 0 0 0 -31.66-67.6l-.508-.424a43.883 43.883 0 0 1 -15.832-33.8zm-48 8h32v16h-32zm0 32h32v28.686l-10.343-10.343a8 8 0 0 0 -11.314 0l-10.343 10.343zm28.687 48-12.687 12.687-12.686-12.687 12.686-12.687zm-76.687 185.658 64-69.819 64 69.819v30.321l-64 75.636-64-75.636zm130.594 182.342h-133.189a27.937 27.937 0 0 1 1.75-20.422 7.994 7.994 0 0 0 .845-3.578v-103.251l57.893 68.419a8 8 0 0 0 12.214 0l57.893-68.419v103.251a8 8 0 0 0 .844 3.577 27.93 27.93 0 0 1 1.75 20.423zm-29.009-290.266.508.424a71.807 71.807 0 0 1 25.907 55.312v28.509l-58.1-63.385a8 8 0 0 0 -11.795 0l-58.1 63.385v-28.509a71.809 71.809 0 0 1 25.911-55.315l.5-.418a59.837 59.837 0 0 0 21.589-46.092v-12.331l10.343 10.343a8 8 0 0 0 11.314 0l10.343-10.343v12.331a59.836 59.836 0 0 0 21.58 46.089z"/><path d="m364.223 296a32 32 0 1 0 -32 32 32.036 32.036 0 0 0 32-32zm-48 0a16 16 0 1 1 16 16 16.019 16.019 0 0 1 -16-16z"/><path d="m209.912 488v-.339a27.209 27.209 0 0 0 -7.428-18.723l-15.169-16.112v-86.866a75.7 75.7 0 0 0 49.5-88.094l-17.689-79.6a8 8 0 0 0 -7.81-6.265h-96a8 8 0 0 0 -7.809 6.265l-17.69 79.6a75.7 75.7 0 0 0 49.5 88.094v86.727l-16 16a27.128 27.128 0 0 0 -8 19.313 8 8 0 0 0 8 8h78.6a8 8 0 0 0 7.995-8zm-88.179-280h83.167l8.889 40h-100.945zm-8.8 117.694a59.409 59.409 0 0 1 -7.5-44.357l3.855-17.337h108.054l3.853 17.337a59.73 59.73 0 0 1 -42.895 70.663h-29.969a59.4 59.4 0 0 1 -35.397-26.306zm21.696 154.306 18.343-18.344a8 8 0 0 0 2.343-5.656v-88h16v88a8 8 0 0 0 2.176 5.484l17.344 18.422.088.094z"/><path d="m312 448h-16a8 8 0 0 0 0 16h16a8 8 0 0 0 0-16z"/><path d="m376 448h-32a8 8 0 0 0 0 16h32a8 8 0 0 0 0-16z"/><path d="m176 336a8 8 0 0 0 2.529-.412l1.234-.411a41.247 41.247 0 0 0 28.237-39.177 8 8 0 0 0 -16 0 25.268 25.268 0 0 1 -17.3 24l-1.232.41a8 8 0 0 0 2.532 15.59z"/></g></svg>