<svg id="Flat" height="512" viewBox="0 0 512 512" width="512" xmlns="http://www.w3.org/2000/svg"><circle cx="240" cy="256" fill="#c3c6c7" r="216"/><path d="m376 232h96a16 16 0 0 1 16 16v16a16 16 0 0 1 -16 16h-96a0 0 0 0 1 0 0v-48a0 0 0 0 1 0 0z" fill="#dadcde"/><circle cx="240" cy="256" fill="#e9eef2" r="168"/><circle cx="240" cy="256" fill="#ad6643" r="136"/><g fill="#d49073"><path d="m240 368h-8a8 8 0 0 1 0-16h8a96.108 96.108 0 0 0 96-96v-8a8 8 0 0 1 16 0v8a112.127 112.127 0 0 1 -112 112z"/><path d="m304 272h-.022a39.788 39.788 0 0 0 8.022-24 8 8 0 0 0 -8-8h-32a39.964 39.964 0 0 0 -32 16.028 39.964 39.964 0 0 0 -32-16.028h-32a8 8 0 0 0 -8 8 39.788 39.788 0 0 0 8.022 24h-.022a8 8 0 0 0 -8 8 40.045 40.045 0 0 0 40 40h64a40.045 40.045 0 0 0 40-40 8 8 0 0 0 -8-8zm-32-16h22.629a24.042 24.042 0 0 1 -22.629 16h-22.629a24.042 24.042 0 0 1 22.629-16zm-86.629 0h22.629a24.042 24.042 0 0 1 22.629 16h-22.629a24.042 24.042 0 0 1 -22.629-16zm22.629 48a24.042 24.042 0 0 1 -22.629-16h22.629a24.042 24.042 0 0 1 22.629 16zm64 0h-22.629a24.042 24.042 0 0 1 22.629-16h22.629a24.042 24.042 0 0 1 -22.629 16z"/><path d="m240 240a7.976 7.976 0 0 1 -5.657-2.343l-28.686-28.686a24.028 24.028 0 0 1 0-33.942l1.373-1.373a24.031 24.031 0 0 1 32.97-.918 24.031 24.031 0 0 1 32.97.918l1.373 1.373a24.028 24.028 0 0 1 0 33.942l-28.686 28.686a7.976 7.976 0 0 1 -5.657 2.343zm-16-57.369a7.976 7.976 0 0 0 -5.657 2.34l-1.373 1.373a8.007 8.007 0 0 0 0 11.312l23.03 23.03 23.03-23.03a8.007 8.007 0 0 0 0-11.312l-1.373-1.373a8.01 8.01 0 0 0 -11.314 0l-4.686 4.686a8 8 0 0 1 -11.314 0l-4.686-4.686a7.976 7.976 0 0 0 -5.657-2.34z"/></g></svg>